<?xml version="1.0" encoding="UTF-8"?>
<svg width="19px" height="21px" viewBox="0 0 19 21" version="1.1" xmlns="http://www.w3.org/2000/svg" xmlns:xlink="http://www.w3.org/1999/xlink">
    <!-- Generator: Sketch 51.2 (57519) - http://www.bohemiancoding.com/sketch -->
    <title>Untitled 3</title>
    <desc>Created with Sketch.</desc>
    <defs></defs>
    <g id="Page-1" stroke="none" stroke-width="1" fill="none" fill-rule="evenodd">
        <g id="noun_switch_1881840" fill="#FFFFFF" fill-rule="nonzero">
            <path d="M17.7813,5.84894586 C17.8501,5.80316586 17.9146,5.74811586 17.9727,5.68366586 C18.0498,5.59784586 18.1094,5.50238586 18.1519,5.40167586 C18.2046,5.27557586 18.2305,5.14117586 18.2295,5.00714586 C18.2315,4.76617586 18.1465,4.52399586 17.9727,4.33075586 C17.9146,4.26630586 17.8501,4.21124586 17.7813,4.16547586 L13.44,0.256658859 C13.0293,-0.112970141 12.3975,-0.079766641 12.0279,0.330633859 C11.6582,0.741033859 11.6914,1.37335586 12.1016,1.74286586 L14.6084,3.99982586 L1.00003,3.99982586 C0.447787,3.99982586 3.29151e-05,4.44757586 3.29151e-05,4.99982586 C3.29151e-05,5.55206586 0.447787,5.99982586 1.00003,5.99982586 L14.6245,5.99982586 L12.1016,8.27155586 C11.6914,8.64105586 11.6582,9.27338586 12.0279,9.68378586 C12.3975,10.0941559 13.0293,10.1273559 13.44,9.75775586 L17.7813,5.84894586 Z" id="Shape"></path>
            <path d="M0.34183,15.7675559 C0.312045,15.7416559 0.283724,15.7136559 0.256869,15.6837559 C0.18558,15.6044559 0.129427,15.5169559 0.0879235,15.4245559 C0.0283532,15.2918559 -0.000943647,15.1493559 3.29151e-05,15.0072559 C-0.00192021,14.7662559 0.0830407,14.5241559 0.256869,14.3308559 C0.314974,14.2664559 0.379427,14.2113559 0.448275,14.1655559 L4.78958,10.2567559 C4.98245,10.0829559 5.22464,9.99823586 5.46536,9.99995586 C5.73636,10.0017559 6.00589,10.1133559 6.20169,10.3307559 C6.57132,10.7411559 6.53812,11.3734559 6.12796,11.7429559 L3.60501,14.0147559 L17.2295,14.0147559 C17.7818,14.0147559 18.2295,14.4624559 18.2295,15.0147559 C18.2295,15.5669559 17.7818,16.0147559 17.2295,16.0147559 L3.62113,16.0147559 L6.12796,18.2716559 C6.53812,18.6411559 6.57132,19.2734559 6.20169,19.6838559 C5.95755,19.9548559 5.59915,20.0614559 5.26566,19.9960559 C5.09427,19.9624559 4.92923,19.8833559 4.78958,19.7578559 L0.448275,15.8490559 C0.411654,15.8245559 0.376009,15.7974559 0.34183,15.7675559 Z" id="Shape"></path>
        </g>
    </g>
</svg>